<svg width="36" height="32" viewBox="0 0 36 32" fill="none" xmlns="http://www.w3.org/2000/svg">
<path d="M34.0508 22.418H10.7891L11.957 20.0391L31.3633 20.0039C32.0195 20.0039 32.582 19.5352 32.6992 18.8867L35.3867 3.84375C35.457 3.44922 35.3516 3.04297 35.0938 2.73438C34.9663 2.5825 34.8074 2.46016 34.628 2.37585C34.4485 2.29153 34.2529 2.24726 34.0547 2.24609L9.36719 2.16406L9.15625 1.17188C9.02344 0.539062 8.45312 0.078125 7.80469 0.078125H1.76953C1.40382 0.078125 1.05309 0.223402 0.794497 0.481997C0.535902 0.740592 0.390625 1.09132 0.390625 1.45703C0.390625 1.82274 0.535902 2.17347 0.794497 2.43207C1.05309 2.69066 1.40382 2.83594 1.76953 2.83594H6.6875L7.60938 7.21875L9.87891 18.207L6.95703 22.9766C6.80529 23.1814 6.7139 23.4245 6.69319 23.6786C6.67248 23.9326 6.72328 24.1874 6.83984 24.4141C7.07422 24.8789 7.54687 25.1719 8.07031 25.1719H10.5234C10.0005 25.8665 9.71798 26.7126 9.71875 27.582C9.71875 29.793 11.5156 31.5898 13.7266 31.5898C15.9375 31.5898 17.7344 29.793 17.7344 27.582C17.7344 26.7109 17.4453 25.8633 16.9297 25.1719H23.2227C22.6997 25.8665 22.4172 26.7126 22.418 27.582C22.418 29.793 24.2148 31.5898 26.4258 31.5898C28.6367 31.5898 30.4336 29.793 30.4336 27.582C30.4336 26.7109 30.1445 25.8633 29.6289 25.1719H34.0547C34.8125 25.1719 35.4336 24.5547 35.4336 23.793C35.4313 23.4276 35.2847 23.078 35.0256 22.8204C34.7665 22.5629 34.4161 22.4182 34.0508 22.418ZM9.94141 4.88281L32.4336 4.95703L30.2305 17.293L12.5625 17.3242L9.94141 4.88281ZM13.7266 28.8164C13.0469 28.8164 12.4922 28.2617 12.4922 27.582C12.4922 26.9023 13.0469 26.3477 13.7266 26.3477C14.4062 26.3477 14.9609 26.9023 14.9609 27.582C14.9609 27.9094 14.8309 28.2234 14.5994 28.4549C14.3679 28.6864 14.0539 28.8164 13.7266 28.8164ZM26.4258 28.8164C25.7461 28.8164 25.1914 28.2617 25.1914 27.582C25.1914 26.9023 25.7461 26.3477 26.4258 26.3477C27.1055 26.3477 27.6602 26.9023 27.6602 27.582C27.6602 27.9094 27.5301 28.2234 27.2986 28.4549C27.0671 28.6864 26.7532 28.8164 26.4258 28.8164Z" fill="white"/>
</svg>
